<svg xmlns="http://www.w3.org/2000/svg" xmlns:xlink="http://www.w3.org/1999/xlink"><symbol id="footer-triangle" viewBox="0 0 595.28 61.905" preserveAspectRatio="none"><path fill="#fff" d="M297.64 61.905L0 0h595.28z"/></symbol><symbol id="map-marker"><circle fill="#FFF" cx="17.991" cy="17.991" r="17.991"/><circle fill="#D22856" cx="17.991" cy="17.991" r="7.866"/></symbol><symbol id="mobile-logo"><path d="M0 1.449C0 .741.58.161 1.256.161h7.18c5.087 0 8.436 2.704 8.436 7.147v.064c0 4.861-4.057 7.373-8.854 7.373H2.544v6.825c0 .708-.58 1.288-1.288 1.288C.58 22.859 0 22.279 0 21.571V1.449zm8.114 10.979c3.734 0 6.182-1.996 6.182-4.958v-.065c0-3.22-2.415-4.894-6.054-4.894H2.544v9.917h5.57zm13.615-11.14C21.729.58 22.308 0 22.983 0c.709 0 1.288.58 1.288 1.288v20.283c0 .708-.579 1.288-1.288 1.288-.676 0-1.255-.58-1.255-1.288V1.288zm9.141.032c0-.676.579-1.256 1.256-1.256h.354c.58 0 .934.29 1.288.74l13.684 17.45V1.256A1.256 1.256 0 0148.707 0c.676 0 1.223.58 1.223 1.256v20.348c0 .676-.482 1.191-1.158 1.191h-.129c-.548 0-.934-.322-1.32-.772L33.349 4.153v17.45c0 .676-.547 1.256-1.255 1.256-.677 0-1.224-.58-1.224-1.256V1.32zm25.43-.032C56.3.58 56.879 0 57.556 0c.708 0 1.287.58 1.287 1.288v12.331L71.689.451c.29-.258.58-.451.999-.451.676 0 1.224.612 1.224 1.256 0 .354-.161.644-.419.901l-7.984 7.92 8.564 10.561c.225.29.354.547.354.934 0 .676-.579 1.288-1.287 1.288-.483 0-.806-.258-1.03-.58l-8.403-10.463-4.862 4.861v4.894c0 .708-.579 1.288-1.287 1.288-.677 0-1.256-.58-1.256-1.288V1.288z" fill="#FFF"/></symbol><symbol id="no"><path d="M15.497 13.376L26.312 2.562A1.5 1.5 0 1024.191.441L13.376 11.255 2.562.439A1.5 1.5 0 10.441 2.56l10.814 10.815L.439 24.19a1.5 1.5 0 102.122 2.121l10.815-10.814L24.19 26.312c.293.293.677.439 1.061.439s.768-.146 1.061-.439a1.5 1.5 0 000-2.121L15.497 13.376z"/></symbol><symbol id="quotes"><path d="M34.967 7.063L30.713 0C28.272 1.495 0 12.207 0 39.617c0 7.231.336 24.172 18.9 24.172 11.187 0 13.94-10.279 13.94-13.584 0-21.977-21.382-14.177-21.382-14.177 0-18.071 19.805-26.844 23.509-28.965zm43.705 0L74.418 0c-2.44 1.495-30.713 12.207-30.713 39.617 0 7.231.337 24.172 18.9 24.172 11.187 0 13.939-10.279 13.939-13.584 0-21.977-21.381-14.177-21.381-14.177.002-18.071 19.806-26.844 23.509-28.965z"/></symbol><symbol id="sprite"><symbol id="footer-triangle" viewBox="0 0 595.28 61.905" preserveAspectRatio="none"><path fill="#fff" d="M297.64 61.905L0 0h595.28z"/></symbol><symbol id="map-marker"><circle fill="#FFF" cx="17.991" cy="17.991" r="17.991"/><circle fill="#D22856" cx="17.991" cy="17.991" r="7.866"/></symbol><symbol id="mobile-logo"><path d="M0 1.449C0 .741.58.161 1.256.161h7.18c5.087 0 8.436 2.704 8.436 7.147v.064c0 4.861-4.057 7.373-8.854 7.373H2.544v6.825c0 .708-.58 1.288-1.288 1.288C.58 22.859 0 22.279 0 21.571V1.449zm8.114 10.979c3.734 0 6.182-1.996 6.182-4.958v-.065c0-3.22-2.415-4.894-6.054-4.894H2.544v9.917h5.57zm13.615-11.14C21.729.58 22.308 0 22.983 0c.709 0 1.288.58 1.288 1.288v20.283c0 .708-.579 1.288-1.288 1.288-.676 0-1.255-.58-1.255-1.288V1.288zm9.141.032c0-.676.579-1.256 1.256-1.256h.354c.58 0 .934.29 1.288.74l13.684 17.45V1.256A1.256 1.256 0 0148.707 0c.676 0 1.223.58 1.223 1.256v20.348c0 .676-.482 1.191-1.158 1.191h-.129c-.548 0-.934-.322-1.32-.772L33.349 4.153v17.45c0 .676-.547 1.256-1.255 1.256-.677 0-1.224-.58-1.224-1.256V1.32zm25.43-.032C56.3.58 56.879 0 57.556 0c.708 0 1.287.58 1.287 1.288v12.331L71.689.451c.29-.258.58-.451.999-.451.676 0 1.224.612 1.224 1.256 0 .354-.161.644-.419.901l-7.984 7.92 8.564 10.561c.225.29.354.547.354.934 0 .676-.579 1.288-1.287 1.288-.483 0-.806-.258-1.03-.58l-8.403-10.463-4.862 4.861v4.894c0 .708-.579 1.288-1.287 1.288-.677 0-1.256-.58-1.256-1.288V1.288z" fill="#FFF"/></symbol><symbol id="no"><path d="M15.497 13.376L26.312 2.562A1.5 1.5 0 1024.191.441L13.376 11.255 2.562.439A1.5 1.5 0 10.441 2.56l10.814 10.815L.439 24.19a1.5 1.5 0 102.122 2.121l10.815-10.814L24.19 26.312c.293.293.677.439 1.061.439s.768-.146 1.061-.439a1.5 1.5 0 000-2.121L15.497 13.376z"/></symbol><symbol id="quotes"><path d="M34.967 7.063L30.713 0C28.272 1.495 0 12.207 0 39.617c0 7.231.336 24.172 18.9 24.172 11.187 0 13.94-10.279 13.94-13.584 0-21.977-21.382-14.177-21.382-14.177 0-18.071 19.805-26.844 23.509-28.965zm43.705 0L74.418 0c-2.44 1.495-30.713 12.207-30.713 39.617 0 7.231.337 24.172 18.9 24.172 11.187 0 13.939-10.279 13.939-13.584 0-21.977-21.381-14.177-21.381-14.177.002-18.071 19.806-26.844 23.509-28.965z"/></symbol><symbol id="sprite"><symbol id="footer-triangle" viewBox="0 0 595.28 61.905" preserveAspectRatio="none"><path fill="#fff" d="M297.64 61.905L0 0h595.28z"/></symbol><symbol id="map-marker"><circle fill="#FFF" cx="17.991" cy="17.991" r="17.991"/><circle fill="#D22856" cx="17.991" cy="17.991" r="7.866"/></symbol><symbol id="mobile-logo"><path d="M0 1.449C0 .741.58.161 1.256.161h7.18c5.087 0 8.436 2.704 8.436 7.147v.064c0 4.861-4.057 7.373-8.854 7.373H2.544v6.825c0 .708-.58 1.288-1.288 1.288C.58 22.859 0 22.279 0 21.571V1.449zm8.114 10.979c3.734 0 6.182-1.996 6.182-4.958v-.065c0-3.22-2.415-4.894-6.054-4.894H2.544v9.917h5.57zm13.615-11.14C21.729.58 22.308 0 22.983 0c.709 0 1.288.58 1.288 1.288v20.283c0 .708-.579 1.288-1.288 1.288-.676 0-1.255-.58-1.255-1.288V1.288zm9.141.032c0-.676.579-1.256 1.256-1.256h.354c.58 0 .934.29 1.288.74l13.684 17.45V1.256A1.256 1.256 0 0148.707 0c.676 0 1.223.58 1.223 1.256v20.348c0 .676-.482 1.191-1.158 1.191h-.129c-.548 0-.934-.322-1.32-.772L33.349 4.153v17.45c0 .676-.547 1.256-1.255 1.256-.677 0-1.224-.58-1.224-1.256V1.32zm25.43-.032C56.3.58 56.879 0 57.556 0c.708 0 1.287.58 1.287 1.288v12.331L71.689.451c.29-.258.58-.451.999-.451.676 0 1.224.612 1.224 1.256 0 .354-.161.644-.419.901l-7.984 7.92 8.564 10.561c.225.29.354.547.354.934 0 .676-.579 1.288-1.287 1.288-.483 0-.806-.258-1.03-.58l-8.403-10.463-4.862 4.861v4.894c0 .708-.579 1.288-1.287 1.288-.677 0-1.256-.58-1.256-1.288V1.288z" fill="#FFF"/></symbol><symbol id="no"><path d="M15.497 13.376L26.312 2.562A1.5 1.5 0 1024.191.441L13.376 11.255 2.562.439A1.5 1.5 0 10.441 2.56l10.814 10.815L.439 24.19a1.5 1.5 0 102.122 2.121l10.815-10.814L24.19 26.312c.293.293.677.439 1.061.439s.768-.146 1.061-.439a1.5 1.5 0 000-2.121L15.497 13.376z"/></symbol><symbol id="quotes"><path d="M34.967 7.063L30.713 0C28.272 1.495 0 12.207 0 39.617c0 7.231.336 24.172 18.9 24.172 11.187 0 13.94-10.279 13.94-13.584 0-21.977-21.382-14.177-21.382-14.177 0-18.071 19.805-26.844 23.509-28.965zm43.705 0L74.418 0c-2.44 1.495-30.713 12.207-30.713 39.617 0 7.231.337 24.172 18.9 24.172 11.187 0 13.939-10.279 13.939-13.584 0-21.977-21.381-14.177-21.381-14.177.002-18.071 19.806-26.844 23.509-28.965z"/></symbol><symbol id="sprite"><symbol id="footer-triangle" viewBox="0 0 595.28 61.905" preserveAspectRatio="none"><path fill="#fff" d="M297.64 61.905L0 0h595.28z"/></symbol><symbol id="map-marker"><circle fill="#FFF" cx="17.991" cy="17.991" r="17.991"/><circle fill="#D22856" cx="17.991" cy="17.991" r="7.866"/></symbol><symbol id="mobile-logo"><path d="M0 1.449C0 .741.58.161 1.256.161h7.18c5.087 0 8.436 2.704 8.436 7.147v.064c0 4.861-4.057 7.373-8.854 7.373H2.544v6.825c0 .708-.58 1.288-1.288 1.288C.58 22.859 0 22.279 0 21.571V1.449zm8.114 10.979c3.734 0 6.182-1.996 6.182-4.958v-.065c0-3.22-2.415-4.894-6.054-4.894H2.544v9.917h5.57zm13.615-11.14C21.729.58 22.308 0 22.983 0c.709 0 1.288.58 1.288 1.288v20.283c0 .708-.579 1.288-1.288 1.288-.676 0-1.255-.58-1.255-1.288V1.288zm9.141.032c0-.676.579-1.256 1.256-1.256h.354c.58 0 .934.29 1.288.74l13.684 17.45V1.256A1.256 1.256 0 0148.707 0c.676 0 1.223.58 1.223 1.256v20.348c0 .676-.482 1.191-1.158 1.191h-.129c-.548 0-.934-.322-1.32-.772L33.349 4.153v17.45c0 .676-.547 1.256-1.255 1.256-.677 0-1.224-.58-1.224-1.256V1.32zm25.43-.032C56.3.58 56.879 0 57.556 0c.708 0 1.287.58 1.287 1.288v12.331L71.689.451c.29-.258.58-.451.999-.451.676 0 1.224.612 1.224 1.256 0 .354-.161.644-.419.901l-7.984 7.92 8.564 10.561c.225.29.354.547.354.934 0 .676-.579 1.288-1.287 1.288-.483 0-.806-.258-1.03-.58l-8.403-10.463-4.862 4.861v4.894c0 .708-.579 1.288-1.287 1.288-.677 0-1.256-.58-1.256-1.288V1.288z" fill="#FFF"/></symbol><symbol id="no"><path d="M15.497 13.376L26.312 2.562A1.5 1.5 0 1024.191.441L13.376 11.255 2.562.439A1.5 1.5 0 10.441 2.56l10.814 10.815L.439 24.19a1.5 1.5 0 102.122 2.121l10.815-10.814L24.19 26.312c.293.293.677.439 1.061.439s.768-.146 1.061-.439a1.5 1.5 0 000-2.121L15.497 13.376z"/></symbol><symbol id="quotes"><path d="M34.967 7.063L30.713 0C28.272 1.495 0 12.207 0 39.617c0 7.231.336 24.172 18.9 24.172 11.187 0 13.94-10.279 13.94-13.584 0-21.977-21.382-14.177-21.382-14.177 0-18.071 19.805-26.844 23.509-28.965zm43.705 0L74.418 0c-2.44 1.495-30.713 12.207-30.713 39.617 0 7.231.337 24.172 18.9 24.172 11.187 0 13.939-10.279 13.939-13.584 0-21.977-21.381-14.177-21.381-14.177.002-18.071 19.806-26.844 23.509-28.965z"/></symbol><symbol id="sprite"><symbol id="footer-triangle" viewBox="0 0 595.28 61.905" preserveAspectRatio="none"><path fill="#fff" d="M297.64 61.905L0 0h595.28z"/></symbol><symbol id="map-marker"><circle fill="#FFF" cx="17.991" cy="17.991" r="17.991"/><circle fill="#D22856" cx="17.991" cy="17.991" r="7.866"/></symbol><symbol id="mobile-logo"><path d="M0 1.449C0 .741.58.161 1.256.161h7.18c5.087 0 8.436 2.704 8.436 7.147v.064c0 4.861-4.057 7.373-8.854 7.373H2.544v6.825c0 .708-.58 1.288-1.288 1.288C.58 22.859 0 22.279 0 21.571V1.449zm8.114 10.979c3.734 0 6.182-1.996 6.182-4.958v-.065c0-3.22-2.415-4.894-6.054-4.894H2.544v9.917h5.57zm13.615-11.14C21.729.58 22.308 0 22.983 0c.709 0 1.288.58 1.288 1.288v20.283c0 .708-.579 1.288-1.288 1.288-.676 0-1.255-.58-1.255-1.288V1.288zm9.141.032c0-.676.579-1.256 1.256-1.256h.354c.58 0 .934.29 1.288.74l13.684 17.45V1.256A1.256 1.256 0 0148.707 0c.676 0 1.223.58 1.223 1.256v20.348c0 .676-.482 1.191-1.158 1.191h-.129c-.548 0-.934-.322-1.32-.772L33.349 4.153v17.45c0 .676-.547 1.256-1.255 1.256-.677 0-1.224-.58-1.224-1.256V1.32zm25.43-.032C56.3.58 56.879 0 57.556 0c.708 0 1.287.58 1.287 1.288v12.331L71.689.451c.29-.258.58-.451.999-.451.676 0 1.224.612 1.224 1.256 0 .354-.161.644-.419.901l-7.984 7.92 8.564 10.561c.225.29.354.547.354.934 0 .676-.579 1.288-1.287 1.288-.483 0-.806-.258-1.03-.58l-8.403-10.463-4.862 4.861v4.894c0 .708-.579 1.288-1.287 1.288-.677 0-1.256-.58-1.256-1.288V1.288z" fill="#FFF"/></symbol><symbol id="no"><path d="M15.497 13.376L26.312 2.562A1.5 1.5 0 1024.191.441L13.376 11.255 2.562.439A1.5 1.5 0 10.441 2.56l10.814 10.815L.439 24.19a1.5 1.5 0 102.122 2.121l10.815-10.814L24.19 26.312c.293.293.677.439 1.061.439s.768-.146 1.061-.439a1.5 1.5 0 000-2.121L15.497 13.376z"/></symbol><symbol id="quotes"><path d="M34.967 7.063L30.713 0C28.272 1.495 0 12.207 0 39.617c0 7.231.336 24.172 18.9 24.172 11.187 0 13.94-10.279 13.94-13.584 0-21.977-21.382-14.177-21.382-14.177 0-18.071 19.805-26.844 23.509-28.965zm43.705 0L74.418 0c-2.44 1.495-30.713 12.207-30.713 39.617 0 7.231.337 24.172 18.9 24.172 11.187 0 13.939-10.279 13.939-13.584 0-21.977-21.381-14.177-21.381-14.177.002-18.071 19.806-26.844 23.509-28.965z"/></symbol><symbol id="sprite"><symbol id="footer-triangle" viewBox="0 0 595.28 61.905" preserveAspectRatio="none"><path fill="#fff" d="M297.64 61.905L0 0h595.28z"/></symbol><symbol id="map-marker"><circle fill="#FFF" cx="17.991" cy="17.991" r="17.991"/><circle fill="#D22856" cx="17.991" cy="17.991" r="7.866"/></symbol><symbol id="mobile-logo"><path d="M0 1.449C0 .741.58.161 1.256.161h7.18c5.087 0 8.436 2.704 8.436 7.147v.064c0 4.861-4.057 7.373-8.854 7.373H2.544v6.825c0 .708-.58 1.288-1.288 1.288C.58 22.859 0 22.279 0 21.571V1.449zm8.114 10.979c3.734 0 6.182-1.996 6.182-4.958v-.065c0-3.22-2.415-4.894-6.054-4.894H2.544v9.917h5.57zm13.615-11.14C21.729.58 22.308 0 22.983 0c.709 0 1.288.58 1.288 1.288v20.283c0 .708-.579 1.288-1.288 1.288-.676 0-1.255-.58-1.255-1.288V1.288zm9.141.032c0-.676.579-1.256 1.256-1.256h.354c.58 0 .934.29 1.288.74l13.684 17.45V1.256A1.256 1.256 0 0148.707 0c.676 0 1.223.58 1.223 1.256v20.348c0 .676-.482 1.191-1.158 1.191h-.129c-.548 0-.934-.322-1.32-.772L33.349 4.153v17.45c0 .676-.547 1.256-1.255 1.256-.677 0-1.224-.58-1.224-1.256V1.32zm25.43-.032C56.3.58 56.879 0 57.556 0c.708 0 1.287.58 1.287 1.288v12.331L71.689.451c.29-.258.58-.451.999-.451.676 0 1.224.612 1.224 1.256 0 .354-.161.644-.419.901l-7.984 7.92 8.564 10.561c.225.29.354.547.354.934 0 .676-.579 1.288-1.287 1.288-.483 0-.806-.258-1.03-.58l-8.403-10.463-4.862 4.861v4.894c0 .708-.579 1.288-1.287 1.288-.677 0-1.256-.58-1.256-1.288V1.288z" fill="#FFF"/></symbol><symbol id="no"><path d="M15.497 13.376L26.312 2.562A1.5 1.5 0 1024.191.441L13.376 11.255 2.562.439A1.5 1.5 0 10.441 2.56l10.814 10.815L.439 24.19a1.5 1.5 0 102.122 2.121l10.815-10.814L24.19 26.312c.293.293.677.439 1.061.439s.768-.146 1.061-.439a1.5 1.5 0 000-2.121L15.497 13.376z"/></symbol><symbol id="quotes"><path d="M34.967 7.063L30.713 0C28.272 1.495 0 12.207 0 39.617c0 7.231.336 24.172 18.9 24.172 11.187 0 13.94-10.279 13.94-13.584 0-21.977-21.382-14.177-21.382-14.177 0-18.071 19.805-26.844 23.509-28.965zm43.705 0L74.418 0c-2.44 1.495-30.713 12.207-30.713 39.617 0 7.231.337 24.172 18.9 24.172 11.187 0 13.939-10.279 13.939-13.584 0-21.977-21.381-14.177-21.381-14.177.002-18.071 19.806-26.844 23.509-28.965z"/></symbol><symbol id="sprite"><symbol id="footer-triangle" viewBox="0 0 595.28 61.905" preserveAspectRatio="none">
  <polygon fill="#ffffff" points="297.64,61.905 0,0 595.28,0 "/>
</symbol><symbol id="map-marker" viewBox="0 0 35.983 35.983">
  <circle fill="#FFFFFF" cx="17.991" cy="17.991" r="17.991"/>
  <circle fill="#D22856" cx="17.991" cy="17.991" r="7.866"/>
</symbol><symbol id="mobile-logo" viewBox="0 0 74.426 22.859">
  <g>
    <path fill="#FFFFFF" d="M0,1.449c0-0.708,0.58-1.288,1.256-1.288h7.18c5.087,0,8.436,2.704,8.436,7.147v0.064 c0,4.861-4.057,7.373-8.854,7.373H2.544v6.825c0,0.708-0.58,1.288-1.288,1.288C0.58,22.859,0,22.279,0,21.571V1.449z M8.114,12.428 c3.734,0,6.182-1.996,6.182-4.958V7.405c0-3.22-2.415-4.894-6.054-4.894H2.544v9.917H8.114z"/>
    <path fill="#FFFFFF" d="M21.729,1.288C21.729,0.58,22.308,0,22.983,0c0.709,0,1.288,0.58,1.288,1.288v20.283 c0,0.708-0.579,1.288-1.288,1.288c-0.676,0-1.255-0.58-1.255-1.288V1.288z"/>
    <path fill="#FFFFFF" d="M30.87,1.32c0-0.676,0.579-1.256,1.256-1.256h0.354c0.58,0,0.934,0.29,1.288,0.74l13.684,17.45V1.256 C47.451,0.58,47.998,0,48.707,0c0.676,0,1.223,0.58,1.223,1.256v20.348c0,0.676-0.482,1.191-1.158,1.191h-0.129 c-0.548,0-0.934-0.322-1.32-0.772L33.349,4.153v17.45c0,0.676-0.547,1.256-1.255,1.256c-0.677,0-1.224-0.58-1.224-1.256V1.32z"/>
    <path fill="#FFFFFF" d="M56.3,1.288C56.3,0.58,56.879,0,57.556,0c0.708,0,1.287,0.58,1.287,1.288v12.331L71.689,0.451 C71.979,0.193,72.269,0,72.688,0c0.676,0,1.224,0.612,1.224,1.256c0,0.354-0.161,0.644-0.419,0.901l-7.984,7.92l8.564,10.561 c0.225,0.29,0.354,0.547,0.354,0.934c0,0.676-0.579,1.288-1.287,1.288c-0.483,0-0.806-0.258-1.03-0.58l-8.403-10.463l-4.862,4.861 v4.894c0,0.708-0.579,1.288-1.287,1.288c-0.677,0-1.256-0.58-1.256-1.288V1.288z"/>
  </g>
</symbol><symbol id="no" viewBox="0 0 26.752 26.752">
  <path d="M15.497,13.376L26.312,2.562c0.586-0.585,0.586-1.535,0-2.121s-1.535-0.586-2.121,0L13.376,11.255L2.562,0.439 c-0.586-0.586-1.535-0.586-2.121,0c-0.586,0.585-0.586,1.535,0,2.121l10.814,10.815L0.439,24.19c-0.586,0.586-0.586,1.535,0,2.121 c0.293,0.293,0.677,0.439,1.061,0.439s0.768-0.146,1.061-0.439l10.815-10.814L24.19,26.312c0.293,0.293,0.677,0.439,1.061,0.439 s0.768-0.146,1.061-0.439c0.586-0.586,0.586-1.535,0-2.121L15.497,13.376z"/>
</symbol><symbol id="quotes" viewBox="0 0 78.672 63.789">
  <g>
    <path d="M34.967,7.063L30.713,0C28.272,1.495,0,12.207,0,39.617c0,7.231,0.336,24.172,18.9,24.172 c11.187,0,13.94-10.279,13.94-13.584c0-21.977-21.382-14.177-21.382-14.177C11.458,17.957,31.263,9.184,34.967,7.063z"/>
  </g>
  <g>
    <path d="M78.672,7.063L74.418,0c-2.44,1.495-30.713,12.207-30.713,39.617c0,7.231,0.337,24.172,18.9,24.172 c11.187,0,13.939-10.279,13.939-13.584c0-21.977-21.381-14.177-21.381-14.177C55.165,17.957,74.969,9.184,78.672,7.063z"/>
  </g>
</symbol><symbol id="triangle" viewBox="0 0 1200 94.074" preserveAspectRatio="none"><path d="M1200 0H0v94.074" fill="#fff"/></symbol><symbol id="yes" viewBox="-82.357 4.875 21.698 16.09">
  <path d="M-60.953,5.167c-0.391-0.391-1.023-0.391-1.414,0L-75.75,18.551l-4.9-4.9c-0.391-0.391-1.023-0.391-1.414,0 s-0.391,1.023,0,1.414l5.607,5.607c0.195,0.195,0.451,0.293,0.707,0.293s0.512-0.098,0.707-0.293l14.09-14.0 C-60.562,6.191-60.562,5.558-60.953,5.167z"/>
</symbol></symbol><symbol id="triangle" preserveAspectRatio="none"><path d="M1200 0H0v94.074" fill="#fff"/></symbol><symbol id="yes" viewBox="-82.357 4.875 21.698 16.09"><path d="M-60.953 5.167a.999.999 0 00-1.414 0L-75.75 18.551l-4.9-4.9a.999.999 0 10-1.414 1.414l5.607 5.607a.997.997 0 001.414 0l14.09-14c.391-.481.391-1.114 0-1.505z"/></symbol></symbol><symbol id="triangle" preserveAspectRatio="none"><path d="M1200 0H0v94.074" fill="#fff"/></symbol><symbol id="yes" viewBox="-82.357 4.875 21.698 16.09"><path d="M-60.953 5.167a.999.999 0 00-1.414 0L-75.75 18.551l-4.9-4.9a.999.999 0 10-1.414 1.414l5.607 5.607a.997.997 0 001.414 0l14.09-14c.391-.481.391-1.114 0-1.505z"/></symbol></symbol><symbol id="triangle" preserveAspectRatio="none"><path d="M1200 0H0v94.074" fill="#fff"/></symbol><symbol id="yes" viewBox="-82.357 4.875 21.698 16.09"><path d="M-60.953 5.167a.999.999 0 00-1.414 0L-75.75 18.551l-4.9-4.9a.999.999 0 10-1.414 1.414l5.607 5.607a.997.997 0 001.414 0l14.09-14c.391-.481.391-1.114 0-1.505z"/></symbol></symbol><symbol id="triangle" preserveAspectRatio="none"><path d="M1200 0H0v94.074" fill="#fff"/></symbol><symbol id="yes" viewBox="-82.357 4.875 21.698 16.09"><path d="M-60.953 5.167a.999.999 0 00-1.414 0L-75.75 18.551l-4.9-4.9a.999.999 0 10-1.414 1.414l5.607 5.607a.997.997 0 001.414 0l14.09-14c.391-.481.391-1.114 0-1.505z"/></symbol></symbol><symbol id="triangle" preserveAspectRatio="none"><path d="M1200 0H0v94.074" fill="#fff"/></symbol><symbol id="yes" viewBox="-82.357 4.875 21.698 16.09"><path d="M-60.953 5.167a.999.999 0 00-1.414 0L-75.75 18.551l-4.9-4.9a.999.999 0 10-1.414 1.414l5.607 5.607a.997.997 0 001.414 0l14.09-14c.391-.481.391-1.114 0-1.505z"/></symbol></symbol><symbol id="triangle" preserveAspectRatio="none"><path d="M1200 0H0v94.074" fill="#fff"/></symbol><symbol id="yes" viewBox="-82.357 4.875 21.698 16.09"><path d="M-60.953 5.167a.999.999 0 00-1.414 0L-75.75 18.551l-4.9-4.9a.999.999 0 10-1.414 1.414l5.607 5.607a.997.997 0 001.414 0l14.09-14c.391-.481.391-1.114 0-1.505z"/></symbol></svg>